<?xml version="1.0" encoding="UTF-8" standalone="no"?>
<!-- Created with Inkscape (http://www.inkscape.org/) -->

<svg
   xmlns:dc="http://purl.org/dc/elements/1.1/"
   xmlns:cc="http://creativecommons.org/ns#"
   xmlns:rdf="http://www.w3.org/1999/02/22-rdf-syntax-ns#"
   xmlns:svg="http://www.w3.org/2000/svg"
   xmlns="http://www.w3.org/2000/svg"
   xmlns:sodipodi="http://sodipodi.sourceforge.net/DTD/sodipodi-0.dtd"
   xmlns:inkscape="http://www.inkscape.org/namespaces/inkscape"
   width="208.26709mm"
   height="77.803185mm"
   viewBox="0 0 208.26709 77.803185"
   version="1.1"
   id="svg8"
   inkscape:version="0.92.4 (5da689c313, 2019-01-14)"
   sodipodi:docname="clear.svg">
  <defs
     id="defs2" />
  <sodipodi:namedview
     id="base"
     pagecolor="#ffffff"
     bordercolor="#666666"
     borderopacity="1.0"
     inkscape:pageopacity="0.0"
     inkscape:pageshadow="2"
     inkscape:zoom="0.5"
     inkscape:cx="9.0230315"
     inkscape:cy="-38.090145"
     inkscape:document-units="mm"
     inkscape:current-layer="flowRoot815"
     showgrid="false"
     fit-margin-top="0"
     fit-margin-left="0"
     fit-margin-right="0"
     fit-margin-bottom="0"
     inkscape:window-width="1920"
     inkscape:window-height="986"
     inkscape:window-x="-11"
     inkscape:window-y="-11"
     inkscape:window-maximized="1" />
  <metadata
     id="metadata5">
    <rdf:RDF>
      <cc:Work
         rdf:about="">
        <dc:format>image/svg+xml</dc:format>
        <dc:type
           rdf:resource="http://purl.org/dc/dcmitype/StillImage" />
        <dc:title></dc:title>
      </cc:Work>
    </rdf:RDF>
  </metadata>
  <g
     inkscape:label="レイヤー 1"
     inkscape:groupmode="layer"
     id="layer1"
     transform="translate(81.395755,-82.1188)">
    <g
       aria-label="Clear!"
       transform="matrix(0.99733367,0,0,0.99733367,607.34986,-470.47731)"
       style="font-style:normal;font-variant:normal;font-weight:normal;font-stretch:normal;font-size:133.33334351px;line-height:0;font-family:Eustache;-inkscape-font-specification:Eustache;font-variant-ligatures:normal;font-variant-caps:normal;font-variant-numeric:normal;font-feature-settings:normal;text-align:start;letter-spacing:-4.46999979px;word-spacing:0px;writing-mode:lr-tb;text-anchor:start;fill:#000000;fill-opacity:1;stroke:none"
       id="flowRoot815">
      <g
         aria-label="Clear!"
         transform="matrix(1.0872123,0,0,0.86622052,-550.84393,728.23465)"
         style="font-style:normal;font-variant:normal;font-weight:normal;font-stretch:normal;font-size:133.33334351px;line-height:0;font-family:Eustache;-inkscape-font-specification:Eustache;font-variant-ligatures:normal;font-variant-caps:normal;font-variant-numeric:normal;font-feature-settings:normal;text-align:start;letter-spacing:-1.33836627px;word-spacing:0px;writing-mode:lr-tb;text-anchor:start;fill:#000000;fill-opacity:1;stroke:none"
         id="flowRoot830">
        <path
           d="m -114.93333,-111.05872 0.4,-0.4 c 0,0 0,0 0,0 v 0 c 0,-0.13333 0.13333,-0.13333 0.26666,-0.13333 l 0.4,0.26666 c 1.06667,-0.13333 1.86667,-0.8 2.93334,-1.06666 0.4,-0.13334 0.8,-0.53334 1.2,-0.8 0.26666,-0.26667 0.53333,-0.4 0.8,-0.53334 0.26666,-0.13333 0.53333,-0.4 0.93333,-0.26666 l 0.13334,-0.53334 c 0.53333,-0.26666 1.2,-0.66666 1.86666,-0.93333 0.26667,-0.13333 0.4,-0.26667 0.66667,-0.53333 0.8,-0.66667 1.46667,-1.46667 2.4,-2.13334 0.26667,-0.4 0.8,-0.26666 0.93333,-0.53333 0.26667,-0.4 0.26667,-0.8 0.53334,-0.93333 0.26666,-0.13334 0.66666,0 0.93333,-0.26667 0,0 0.13333,-0.13333 0.26667,-0.26667 0.533329,-0.66666 1.199996,-1.2 1.733329,-1.73333 0.8,-0.26667 1.2,-0.8 1.6,-1.33333 0.666667,-0.53334 1.333334,-1.2 2,-1.86667 0.533334,-0.26667 0.8,-0.66667 1.2,-1.06667 0.533334,-0.8 1.200001,-1.46666 2.000001,-2.13333 0.266666,-0.13333 0.4,-0.53334 0.666666,-0.8 0.533334,-0.66667 1.066667,-1.33334 1.866667,-1.73334 0.133333,-0.66666 0.666667,-1.06666 1.066667,-1.33333 l 0.133333,-0.53333 c 0.266667,-0.26667 0.666667,-0.4 0.8,-0.8 0.266667,-0.4 0.666667,-0.66667 0.933334,-1.06667 0.4,-0.4 0.666666,-0.66667 0.933333,-1.06667 0.4,-0.8 0.933333,-1.33333 1.466667,-2 0,0 0.266667,-0.13333 0.266667,-0.26666 0.533333,-1.2 1.466666,-2.13334 2,-3.2 0.266666,-0.26667 0.4,-0.66667 0.666666,-0.93334 0.666667,-0.66666 1.066667,-1.6 1.466667,-2.26666 0.4,-0.66667 0.666667,-1.33334 0.666667,-2 0.666667,-0.66667 0.8,-2.4 0.8,-3.2 -0.666667,0.26666 -0.933333,0.93333 -1.6,1.33333 -0.266667,0.26667 -0.4,0.66667 -0.666667,1.06667 -0.8,0.26666 -0.933333,1.2 -1.6,1.6 l -0.133333,0.4 c -0.8,0.26666 -1.2,1.06666 -1.733334,1.6 0.133334,0.26666 0.133334,0.53333 -0.133333,0.66666 l -0.8,0.13334 c -0.666667,0.66666 -1.333334,1.33333 -2,2 -0.266667,0.26666 -0.533334,0.4 -0.8,0.8 -0.4,0.53333 -0.933334,0.93333 -1.466667,1.46666 -0.666667,0.66667 -1.6,1.06667 -2.266667,1.86667 -0.133333,0.26667 -0.4,0.53333 -0.533333,0.66667 -0.933334,0.66666 -1.733334,1.33333 -2.533334,2.13333 -0.8,0.8 -1.866667,1.06667 -2.533333,2.13333 0,0.13334 -0.133334,0.13334 -0.266667,0.13334 0,0.13333 0,0.13333 -0.133333,0.26666 0,0.26667 0.4,0.4 0,0.66667 -0.266667,0 -0.400001,-0.26667 -0.800001,-0.13333 -0.133333,0.13333 -0.4,0.4 -0.666666,0.53333 -0.4,0.53333 -0.8,1.06667 -1.333334,1.33333 -0.666662,0.40001 -1.333332,0.66667 -2.000002,1.06667 -0.66666,0.4 -1.06666,1.06667 -1.46666,1.46667 -0.13334,0.4 0.26666,0.53333 0.4,0.8 -0.26667,0.13333 -0.4,-0.26667 -0.66667,-0.13333 l -1.2,0.4 c -0.66667,0.66666 -1.46667,1.46666 -2.26667,1.86666 -0.26666,0.13334 -0.53333,0.26667 -0.66666,0.4 -0.53334,0.53334 -0.93334,0.93334 -1.60001,1.2 -0.53333,0.26667 -0.66666,0.66667 -0.8,1.06667 -0.8,-0.13333 -1.2,0.4 -1.6,0.8 l -0.66666,0.13333 c -0.4,0.13334 -0.8,0.53334 -1.2,0.8 -0.53334,0.26667 -1.06667,0.26667 -1.6,0.26667 -0.26667,0 -0.53334,0 -0.66667,0.13333 -0.13333,0.13334 -0.26667,0.26667 -0.4,0.26667 -0.13333,0 -0.26667,0 -0.26667,0 -0.13333,0 -0.26666,0 -0.4,0.13333 -1.06666,0.26667 -1.06666,-0.93333 -2,-0.26666 -0.26666,0.13333 -0.53333,0 -0.66666,-0.13334 -0.26667,-0.13333 -0.4,-0.26666 -0.53334,-0.4 -0.66666,-1.06666 -1.06666,-2.8 -1.06666,-4 -0.13334,-0.66666 -0.13334,-1.33333 -0.26667,-1.86666 -0.26667,-0.8 -0.26667,-1.46667 -0.26667,-2.13334 -0.13333,-0.66666 -0.26666,-1.46666 -0.26666,-2.13333 0,-0.53334 0.13333,-0.93334 0,-1.33334 0,-0.8 0.26666,-1.6 0.13333,-2.26666 0.13333,-0.4 0.13333,-0.93334 0.13333,-1.33334 0,-0.53333 0,-1.06666 0.26667,-1.46666 -0.13333,-0.26667 -0.13333,-0.4 -0.26667,-0.66667 l 0.4,-0.8 c 0,-0.66667 0.13334,-1.33333 0.26667,-2 0,-0.26667 0.13333,-0.53333 0.13333,-0.66667 -0.26666,-0.93333 0.26667,-1.86666 0.26667,-2.8 0.4,-0.4 0.13333,-1.06666 0.26667,-1.6 0.26666,-0.53333 0.53333,-1.2 0.66666,-1.73333 l -0.26666,-0.8 c 0.26666,-0.4 0.53333,-0.66667 0.53333,-1.2 0.26667,-0.66667 0.4,-1.46667 0.8,-2.26667 0.26667,-0.8 0.4,-1.6 0.53333,-2.26666 0.4,-1.06667 1.2,-1.86667 1.06667,-2.93334 0.13333,-0.4 0.4,-0.8 0.53333,-1.33333 0.26667,-1.06667 0.8,-2 1.2,-2.93333 0.4,-1.06667 0.66667,-2.13334 1.2,-3.06667 0.4,-0.53333 0.53334,-1.06667 0.66667,-1.6 0.13333,-0.4 0.53333,-0.53333 0.53333,-0.8 0,-0.53333 0.26667,-1.06667 0.53334,-1.46667 0.26666,-0.53333 0.4,-1.2 0.93333,-1.6 0.13333,-0.53333 0.26667,-0.93333 0.66667,-1.46666 0.26666,-0.4 0.4,-0.8 0.66666,-1.33334 0.26667,-0.66666 0.53334,-1.33333 0.93334,-1.86667 0.26666,-0.4 0.26666,-0.66666 0.4,-1.06666 0.53333,-0.53334 1.06667,-1.06667 1.2,-1.86667 0.53333,-0.53333 0.93333,-0.93333 1.2,-1.6 0,-0.13333 0.13333,-0.26667 0.26667,-0.4 0.26666,-0.26667 0.4,-0.4 0.4,-0.66667 0,-0.66666 0.53333,-0.93333 0.93333,-1.33333 l 0.26667,-0.8 c 0.8,-0.53333 0.8,-1.6 1.6,-1.86667 l 0.4,-1.06666 c 0.26666,-0.26667 0.53333,-0.53334 0.8,-0.8 l 0.13333,-0.66667 c 0.4,-0.4 0.8,-0.66667 1.33333,-0.8 0.13334,-0.66667 0.800002,-0.8 0.933336,-1.33333 0.133333,-0.4 0.533333,-0.66667 0.8,-0.93334 0.533333,-0.4 0.933333,-0.93333 1.333333,-1.2 0.533334,-0.26666 0.533334,-0.93333 0.8,-1.33333 0.8,-0.53333 1.6,-1.06667 2.266667,-1.6 0.533333,-0.66667 1.2,-1.2 1.733334,-1.73333 0.4,-0.4 0.8,-0.8 1.466666,-0.8 0.133334,0 0.266667,0 0.266667,-0.13334 0.666667,-0.53333 1.466667,-0.93333 2.266667,-1.06666 0.4,-0.13334 0.8,-0.13334 1.2,-0.26667 0.4,-0.13333 0.666667,-0.4 1.066667,-0.13333 0.266666,0 0.4,0.26666 0.533333,0.4 0.133333,0 0.133333,0.13333 0.133333,0.13333 0.133334,0.13333 0.133334,0.26667 0.133334,0.26667 0.133333,0.26666 0.4,0.26666 0.4,0.53333 0,0 0,0.13333 0,0.13333 0,0 0.133333,0.13334 0.133333,0.13334 0.133333,0 0.133333,0.26666 0.133333,0.4 0,0.13333 0,0.4 0.133334,0.53333 0.133333,0 0.133333,0 0.266666,0.13333 0.400001,0.26667 0,0.8 -0.133333,1.33334 -0.133333,0.4 -0.133333,0.93333 -0.266667,1.46666 0,0.26667 0,0.4 0.133334,0.66667 l -0.4,1.06667 c 0,0.26666 0,0.4 0,0.53333 l -0.266667,0.26667 c -0.133333,0.93333 -0.533333,1.73333 -0.666667,2.66666 -0.666666,0.8 -0.666666,1.73334 -1.066666,2.66667 -0.533334,0.8 -0.533334,1.73333 -1.2,2.4 -0.133334,0.13333 -0.133334,0.13333 -0.133334,0.26667 0,0.4 -0.266667,0.8 -0.533333,1.06666 0,0.13334 0,0.26667 0,0.4 -0.133334,0.13334 -0.266667,0.26667 -0.266667,0.53334 -0.266667,0.53333 -0.4,1.2 -0.533333,1.86666 -0.266667,0.13334 -0.666667,0.13334 -0.8,0.53334 -0.4,0.93333 -0.933334,1.86666 -1.6,2.66666 0,0.53334 -0.266667,0.8 -0.533334,1.20001 -0.4,0.53333 -0.8,1.2 -0.933333,1.86666 l -0.533334,0.26667 c -0.4,0.26667 -0.666666,0.66667 -0.8,1.33333 -0.133333,0.13334 0.266667,0.26667 0.266667,0.53334 -0.933333,0 -1.466667,0.53333 -1.866667,1.33333 -0.133333,0.4 -0.533333,0.8 -0.8,1.2 -0.133333,0.13333 -0.266667,0.4 -0.4,0.66667 0,0.26666 0,0.53333 0,0.66666 0,0.4 -0.133333,0.66667 -0.266667,0.93334 0,0.13333 -0.133333,0.13333 -0.133333,0 0,-0.13334 0,-0.26667 0,-0.4 0,-0.13334 0,-0.26667 -0.133333,-0.26667 -1.066667,0.8 -1.333334,1.06667 -1.733334,2 -0.666662,0.4 -0.933332,1.33333 -1.466662,1.73333 -0.26667,0.26667 -0.4,0.66667 -0.26667,0.93334 -0.26667,0.13333 -0.53333,0.13333 -0.66667,0.4 -0.13333,0.13333 -0.13333,0.26666 -0.26666,0.53333 h -0.4 c -0.93334,0.66667 -1.2,1.73333 -2.13334,2.26667 l -0.26666,0.66666 c -0.66667,0.26667 -1.2,0.66667 -1.6,1.33334 v 0.4 c -0.53334,0 -0.8,0.53333 -1.20001,0.8 0,0.26666 -0.13333,0.53333 -0.26666,0.8 l 0.13333,0.53333 c 0,0.13333 -0.13333,0.13333 -0.26667,0.26667 -0.26666,-0.26667 0,-0.66667 -0.13333,-0.8 -0.26667,-0.4 -0.8,-0.66667 -1.2,-0.8 -0.26667,0.4 -0.8,0.26666 -1.2,0.4 0,0.53333 0.53333,0.8 0.26667,1.2 -0.26667,0.13333 -0.53334,-0.26667 -0.8,0 -0.26667,0.4 0.13333,0.53333 0.26666,0.8 -0.13333,0.13333 -0.4,0.26666 -0.66666,0.13333 -0.13334,0 -0.26667,0 -0.4,0.13333 0,0.13334 0,0.4 0.13333,0.4 0.13333,0.13334 0.4,0.26667 0.53333,0.53334 0.4,0.4 0.66667,0.8 1.06667,1.2 l 0.8,0.4 c 0.53333,-0.4 1.06667,0 1.73333,-0.26667 0.66667,-0.4 1.33334,-0.8 2.00001,-1.2 0.66666,-0.4 0.93333,-1.2 1.73333,-1.6 0,-0.26667 0.13333,-0.53333 0.13333,-0.8 l 0.66667,0.13333 c 1.46667,-1.06666 2.4,-2.53333 3.733332,-3.6 0.133334,-0.13333 0.133334,-0.4 0.266667,-0.66666 0.4,-0.13334 0.666667,-0.26667 0.933333,-0.66667 0,-0.26667 0.133334,-0.4 0.4,-0.4 0.4,-0.26667 0.666667,-0.53333 0.8,-0.93333 0.266667,-0.4 0.800001,-0.53334 0.933334,-0.93334 0.133333,-0.26666 0.4,-0.4 0.533333,-0.66666 0.133334,-0.13334 0.266667,-0.4 0.4,-0.53334 0.266667,-0.13333 0.666667,-0.26666 0.8,-0.53333 0,-0.26667 -0.266666,-0.4 -0.266666,-0.53333 l 0.666666,-0.13334 c 0.266667,-0.93333 1.066667,-1.46666 1.733334,-2 0.4,-0.66666 0.8,-1.33333 1.066667,-2 0.133333,-0.13333 0.266666,-0.13333 0.266666,-0.26666 0.8,-0.8 1.733334,-1.6 2,-2.66667 0,-0.13333 0,-0.13333 0.133334,-0.26667 0.266666,-0.26666 0.4,-0.66666 0.666666,-0.93333 0.400001,-0.26667 0.266667,-0.8 0.400001,-0.93333 0.533333,-0.53334 0.666666,-1.2 1.2,-1.73334 0.666666,-0.8 1.066666,-1.6 1.466666,-2.66667 0.666667,-0.53333 1.066667,-1.2 1.2,-2 0.266667,-0.53333 0.400001,-0.93333 0.800001,-1.2 0,-0.66666 0.266666,-1.2 0.533333,-1.6 0.4,-0.53333 0.266667,-1.2 0.666667,-1.73333 0,0 0.133333,-0.13333 0.133333,-0.13333 0.266667,-0.66667 0.666667,-1.2 0.8,-2 0,-0.8 0.266667,-1.33334 0.666667,-2 -0.133334,-0.66667 0.266666,-1.2 0.4,-1.86667 0,-0.8 0.4,-1.46667 0.266666,-2.13333 l 0.400001,-0.53334 c -0.266667,-0.53333 -0.266667,-1.2 -0.133334,-1.73333 0.133334,-0.13333 0.133334,-0.4 0,-0.66667 -0.266667,-0.4 0.133334,-0.8 0,-1.2 -0.4,-0.93333 -0.4,-1.86666 -0.8,-2.93333 -0.533333,-0.66667 -0.933333,-1.46667 -1.2,-2.53333 -0.533333,-0.26667 -0.933333,-0.66667 -1.2,-1.06667 -0.933333,-0.53333 -1.866667,-1.06667 -2.8,-1.46667 -0.8,0 -1.6,0 -2.266667,0 -0.533334,0 -1.066667,0 -1.466667,0.13334 -0.666667,0.26666 -1.466667,0.4 -2.133333,0.53333 -0.8,0.13333 -1.466667,0.53333 -2.133334,0.93333 -0.133333,0.13334 -0.266667,0.26667 -0.4,0.4 -0.933333,0.4 -2,0.8 -2.8,1.6 -0.8,0.26667 -1.333334,0.93334 -1.866667,1.6 -0.4,0 -0.666667,0.26667 -0.933333,0.53334 -0.399996,0.4 -0.799996,0.66666 -1.199996,0.93333 -0.8,0.53333 -1.33334,1.46667 -1.86667,2.13333 -0.13333,0.13334 0,0.13334 -0.13333,0.26667 -0.66667,0.53333 -1.33334,1.06667 -1.6,1.86667 -0.66667,0.4 -1.33334,0.8 -1.73334,1.33333 0,0.13333 0,0.26667 0.13334,0.26667 l 0.93333,0.26666 c 0,0.13334 0.26667,0.26667 0.13333,0.4 -0.4,0.13334 -0.53333,-0.26666 -0.93333,-0.26666 -0.26667,0.13333 -0.4,0.4 -0.66667,0.4 -0.53333,0.26666 -0.93333,0.66666 -0.93333,1.2 l -0.4,0.13333 c -0.26667,0.8 -0.93334,1.46667 -1.6,2.13333 -0.13334,0.13334 -0.4,0.26667 -0.4,0.53334 -0.13334,0.4 -0.53334,0.8 -0.8,1.2 -0.53334,0.8 -1.06667,1.46666 -1.33334,2.4 -0.8,0.26666 -1.06666,0.93333 -1.2,1.73333 -0.53333,0.4 -0.66666,0.93333 -1.06666,1.46667 -0.66667,1.2 -1.46667,2.4 -2,3.73333 0,0.26667 -0.13334,0.4 -0.26667,0.53333 -0.8,0.93334 -1.2,1.86667 -1.73333,2.93334 -0.26667,0.66667 -0.53334,1.2 -0.8,1.86667 -0.4,0.53333 -0.4,1.33333 -0.8,1.86666 -0.13334,0.26667 0.26666,0.4 0.13333,0.66667 l -0.53333,0.4 c -0.53334,1.33333 -1.06667,2.53333 -1.73334,3.73333 -0.13333,0.26667 -0.26666,0.53334 -0.13333,0.93334 -0.53333,0.8 -0.93333,1.73333 -1.2,2.66666 l 0.13333,0.53334 c -0.26666,0.66666 -0.53333,1.2 -0.8,1.86666 l 0.13334,0.66667 c -0.13334,0.13333 -0.4,0.13333 -0.53334,0.4 -0.13333,0.4 0,0.93333 -0.26666,1.46667 -0.4,0.66666 -0.4,1.33333 0,2 -1.06667,0.53333 -1.33334,1.46666 -1.2,2.53333 0.13333,0.4 0.53333,0.26667 0.93333,0.4 0.13333,0.53333 -0.13333,0.93333 -0.4,1.2 0,-0.13333 0,-0.4 0,-0.66667 -0.13333,0 -0.26667,-0.13333 -0.4,-0.13333 -0.13333,0 -0.13333,0.13333 -0.26667,0.13333 -0.13333,0.13334 -0.26666,0.26667 -0.53333,0.26667 0.26667,0.8 -0.13333,1.33333 -0.13333,1.86667 0.26666,0.53333 0.93333,0.4 1.2,0.53333 0.13333,0.13333 0.26666,0.26667 0.13333,0.53333 -0.4,0.13334 -0.66667,-0.26666 -1.06667,-0.13333 -0.13333,0.13333 -0.53333,0.26667 -0.66666,0.53333 0,0.13334 0,0.26667 0,0.26667 0.13333,0.26667 0.66666,0.26667 0.53333,0.66667 0,0.26666 -0.26667,0 -0.4,0.13333 -0.26667,0.4 -0.26667,0.93333 -0.4,1.46667 0.26667,0.4 -0.26667,0.8 -0.13333,1.2 0,0.4 -0.4,0.8 -0.4,1.33333 0,0.66667 -0.26667,1.46667 0.13333,2.26667 -0.13333,0.4 -0.26667,0.93333 -0.4,1.33333 l 0.13333,0.8 c -0.13333,0.4 -0.26666,0.8 -0.13333,1.2 0,0.13333 0.13333,0.26667 0,0.4 -0.13333,0.66667 0,1.46667 -0.13333,2.13333 0,0.66667 0,1.46667 0.4,2.00001 -0.53334,0.66666 -0.4,1.2 0,1.73333 -0.26667,0.8 -0.13334,1.6 0.13333,2.4 0.13333,0.26667 0.26667,0.53333 0.26667,0.93333 0,0.13334 0.13333,0.26667 0.26666,0.26667 l -0.13333,0.53333 c 0,0.26667 0.26667,0.4 0.26667,0.8 0,0.8 0.4,1.73334 1.06666,2.4 0.13334,0.53334 0.13334,1.06667 0.66667,1.2 l 0.53333,-0.26666 c 0.26667,0.13333 0.53334,0.4 0.66667,0.66666 -0.4,0 -0.53333,0.13334 -0.66667,0.4 0,0.4 0.13334,0.66667 0.4,0.93334 0.8,0.53333 1.33334,1.33333 2,1.6 0.4,0.26666 0.4,0.66666 0.66667,0.93333 0.13333,0.13333 0.4,0.26667 0.53333,0.4 l 0.4,0.8 c 0.53334,0 0.93334,0.4 1.33334,0.8 h 0.4 c 0.4,0.66667 0.53333,0.66667 1.2,0.53333 v -0.4 c 0.26666,0 0.53333,0 0.66666,0.26667 0.26667,0.26667 0.53334,0.26667 0.8,0.4 0.53334,0 1.2,0.13333 1.73334,0 z m 16.933332,-84.66667 c -0.133333,0.13333 -0.133333,0 -0.133333,-0.13334 0,0 0,0 0.133333,0 v 0.13334 c 0,0 0,0 0,0 z m 14.533335,1.86666 c 0,-0.13333 -0.133333,-0.13333 -0.133333,-0.26666 0,0 0.133333,0 0.133333,0 0,0 0.133333,0 0.133333,0 -0.133333,0.13333 -0.133333,0.13333 -0.133333,0.26666 z m -0.266667,3.73334 c -0.133333,-0.26667 -0.133333,-0.4 0.266667,-0.53334 0,0.26667 -0.133333,0.4 -0.266667,0.53334 z m -22.53333,3.06666 c -0.13334,0 -0.13334,0 0,-0.13333 0,0 0,0.13333 0,0.13333 0,0 0,0 0,0 0,0 0,0 0,0 z m -0.93334,0.66667 c -0.26666,0.26667 -0.4,0.13333 -0.53333,0 z m -1.33333,2.13333 c -0.13334,0 -0.13334,0 -0.13334,-0.13333 0.13334,0 0.13334,0 0.13334,0 0,0 0,0 0,0.13333 0,0 0,0 0,0 z m -1.06667,1.73334 c -0.13333,0 -0.26667,-0.13334 -0.26667,-0.26667 0.26667,0 0.26667,0.13333 0.26667,0.26667 z m 23.600003,1.46666 -0.4,-0.26666 c 0.4,-0.13334 0.4,0 0.4,0.26666 z M -110.4,-181.32539 h 0.26667 c -0.13334,0.13333 -0.13334,0 -0.26667,0 z m 20.133336,7.33333 c -0.133333,-0.13333 -0.133333,-0.26667 -0.133333,-0.4 h 0.533333 c -0.133333,0.13333 -0.133333,0.26667 -0.4,0.4 z m -29.200006,9.06667 c 0,0 -0.13333,-0.13333 -0.13333,-0.13333 0.13333,-0.13334 0.13333,-0.13334 0.13333,0 0,0 0,0 0,0.13333 z m 23.333339,0.93333 c -0.266666,0.13334 -0.533333,-0.13333 -0.666666,-0.26666 0.266666,-0.13334 0.533333,0 0.666666,0.26666 z m -23.599999,0.53334 c 0,-0.13334 0.13333,-0.13334 0.26666,-0.13334 0.13334,0.26667 0,0.26667 -0.26666,0.13334 z m 20.666666,2.4 c 0.133333,-0.26667 0.266666,-0.26667 0.4,-0.26667 l 0.133333,0.13333 c -0.133333,0.13334 -0.266667,0.13334 -0.533333,0.13334 z m -0.8,0.26666 c 0.133333,-0.26666 0.133333,-0.4 0.266666,-0.4 0.133334,0.26667 0.133334,0.4 -0.266666,0.4 z m -21.866666,1.33334 c -0.13334,-0.13334 -0.13334,-0.26667 -0.13334,-0.4 0.13334,-0.13334 0.26667,-0.13334 0.4,0 0,0.26666 -0.13333,0.4 -0.26666,0.4 z m 20.13333,0.53333 c 0,0 -0.13333,0 -0.13333,0 0,0 0,0 0,0 z m -2.4,3.06667 0.4,-0.26667 c 0,0.26667 -0.13333,0.4 -0.4,0.26667 z m -19.73333,2.8 c -0.13334,-0.26667 0,-0.53334 -0.13334,-0.8 0.26667,0.13333 0.4,0.26666 0.53334,0.53333 z m 17.06667,0 c -0.26667,0 -0.26667,-0.26667 -0.4,-0.4 0.13333,0 0.13333,0 0.26666,0 0.13334,0.13333 0.26667,0.13333 0.13334,0.4 z m -3.46667,1.73333 c 0,-0.13333 0.13333,0 0.13333,0 z m 32.133334,1.86667 c 0,0 0,0 0,0 v -0.13334 c 0,0 0,0 0,0.13334 z m -47.066674,0.66666 c 0,0 -0.13333,-0.13333 0,-0.13333 0,-0.13333 0.13334,-0.13333 0.13334,-0.13333 0,0.13333 0.13333,0.13333 0.13333,0.26666 z m -0.8,3.06667 c -0.26666,0 -0.4,-0.13333 -0.4,-0.26667 0.13334,-0.26666 0.4,-0.4 0.53334,-0.4 0,0.26667 0.13333,0.53334 -0.13334,0.66667 z m -0.4,3.46667 c -0.13333,-0.13334 -0.13333,-0.13334 -0.13333,-0.13334 0,-0.13333 0.13333,-0.13333 0.13333,0 0,0 0,0 0,0 0,0 0,0.13334 0,0.13334 z m -0.8,4.8 c 0,-0.13334 0,-0.13334 0,-0.13334 0,0 0,-0.13333 0,-0.13333 z m -0.13333,5.06666 c -0.13333,0 -0.13333,-0.13333 -0.13333,-0.26666 0,0 0.13333,-0.13334 0.13333,-0.13334 0.13333,0 0.13333,0.13334 0.13333,0.26667 0,0 0,0.13333 -0.13333,0.13333 z m 30.666669,1.2 h 0.266667 c -0.133333,0.13334 -0.133333,0.13334 -0.266667,0 z m 1.866667,4.80001 c -0.133333,0 -0.266667,0 -0.133333,-0.26667 0.133333,0.13333 0.266666,0.13333 0.133333,0.26667 z M -127.2,-125.05872 c -0.26667,-0.26667 -0.13333,-0.53333 -0.13333,-0.8 0.26666,0.13333 0.26666,0.13333 0.13333,0.8 z m -0.26667,2 c 0.13334,-0.13333 0.13334,-0.26667 0.4,-0.4 0,0.26667 -0.26666,0.4 -0.4,0.4 z m 9.33334,11.33333 h -0.13334 c 0,0 0.13334,0 0.13334,0 0,0 0,0 0,0 z m 3.6,0.26667 c 0,0.13333 0,0.13333 0,0 z m 0,0.13333 v -0.13333 z"
           id="path838"
           inkscape:connector-curvature="0" />
        <path
           d="m -77.371698,-118.52539 c 0.4,-0.13333 0.8,-0.26666 1.2,-0.53333 1.200001,-0.66667 2.133334,-1.46667 3.333334,-2 1.066667,-0.53333 2,-1.33333 2.533334,-2.4 0.533333,-0.4 1.066666,-0.66667 1.733333,-1.06667 l 0.133333,-1.06666 c 0.4,-0.4 0.8,0.13333 1.2,-0.4 0.800001,-1.2 2.000001,-2.26667 3.066667,-3.46667 0.933334,-1.2 1.866667,-2.53334 2.666667,-3.86667 1.066667,-1.46667 2,-3.06667 2.933334,-4.66667 0.133333,-0.4 0.4,-0.66666 0.533333,-1.06666 0.666667,-1.73334 1.466667,-3.46667 1.866667,-5.33334 0.133333,-0.26666 0.133333,-0.4 -0.133333,-0.66666 -0.4,-0.13334 -0.533334,0.26666 -0.8,0.53333 -0.4,0.26667 -0.666667,0.4 -1.066667,0.66667 -0.266667,0.26666 -0.666667,0.53333 -0.8,0.93333 -0.266667,0.53333 -0.666667,0.4 -0.933334,0.8 -0.266666,0.26667 -0.666666,0.53333 -0.666666,0.93333 0.133333,0.4 0.133333,0.66667 -0.266667,0.93334 l -0.666667,-0.13334 c -0.666666,0.53334 -1.333333,1.06667 -1.866667,1.73334 0,0.13333 0,0.26666 -0.133333,0.26666 0,0.26667 0.533333,0.4 0.266667,0.8 -0.4,0 -0.666667,-0.4 -0.933334,-0.4 -0.933333,0.26667 -1.333333,1.2 -2.133333,1.6 -0.8,0.53334 -1.466667,1.06667 -1.866667,2 -0.8,0 -1.466667,0.53334 -2,1.06667 -0.533333,0.4 -0.933333,0.8 -1.466667,1.06667 -0.4,0.13333 -0.533333,0.53333 -0.533333,0.93333 -0.133334,0 -0.4,0 -0.533334,0.13333 -1.2,0.8 -2.4,1.6 -3.466667,2.53334 -0.133333,0 -0.266666,0.13333 -0.266666,0.13333 -1.066667,1.2 -1.066667,1.2 -2.933334,1.86667 0,-0.13333 -0.133333,-0.4 -0.133333,-0.53333 -0.133333,-2.00001 0.4,-3.86667 0.533333,-5.73334 0,-0.53333 0,-1.2 0.266667,-1.73333 0.266667,-0.4 0.4,-0.93334 0.4,-1.46667 0.533333,-1.73333 1.066667,-3.6 1.466667,-5.33333 0.666666,-2.93334 1.866667,-5.6 2.266667,-8.53334 0.133333,-0.93333 0.266666,-2 0.666666,-2.66666 0.266667,-0.4 0.4,-0.66667 0.533334,-0.93334 0,0 0,0 0,0 v 0 c 0.266666,-0.8 0.533333,-1.6 0.8,-2.4 0,0 0,-0.13333 0,-0.13333 l 0.133333,-0.26667 c 0.133333,-0.26666 0.4,-0.53333 0.4,-0.8 0.133333,-0.53333 0.266667,-0.93333 0.533333,-1.33333 0,0 0,-0.13333 0,-0.26667 v 0 c 0.666667,-0.66666 0.666667,-1.46666 0.933334,-2.13333 l -0.266667,-0.53333 c 0.133334,-0.4 0.266667,-0.66667 0.4,-0.8 0.133334,-0.26667 0.266667,-0.4 0.266667,-0.66667 0.266667,-0.4 0.4,-0.8 0.533333,-1.33333 0.266667,-1.06667 0.666667,-2.13334 1.333334,-3.06667 0.133333,-0.13333 0.266666,-0.4 0.266666,-0.53333 0.133334,-0.93334 0.266667,-1.73334 0.4,-2.66667 0,-0.26667 0.133334,-0.53333 0.266667,-0.8 0.4,-0.8 0.933334,-1.6 1.066667,-2.4 0,-0.8 0.133333,-1.46667 0.666667,-2 0.533333,-2.26667 1.6,-4.4 2,-6.8 0.133333,-0.93334 0.266666,-1.73334 0.933333,-2.53334 0.266667,-0.4 0.533334,-0.93333 0.533334,-1.46666 0.4,-1.6 1.066666,-2.93334 1.6,-4.26667 l -0.133334,-2.13333 c -1.066666,-1.2 -2.133333,-1.86667 -3.733333,-1.86667 -0.933334,0.66667 -1.066667,1.73333 -1.2,2.8 -0.266667,0.26667 -0.533334,0.53333 -0.666667,0.8 -0.133333,0.13333 -0.266667,0.4 -0.266667,0.66667 -0.4,0.4 -0.533333,1.86666 -0.8,2.26666 -0.933333,0.53334 -0.8,1.33334 -0.533333,2.13334 -0.4,0.4 -0.8,0.66666 -1.066667,0.93333 -0.266667,0.26667 -0.133333,0.4 0.133333,0.66667 0.266667,-0.13334 -1.066666,1.6 -0.666666,2.13333 0.266666,0.13333 0.533333,-0.13333 0.666666,0.4 -0.266666,0 -0.533333,0.13333 -0.8,0.26667 -0.666666,1.06666 -1.066666,1.06666 -1.066666,2.93333 -1.066667,1.33333 -0.666667,3.2 -1.466667,4.53333 0,0 0,0.13334 0.133333,0.13334 l -0.4,0.4 c -0.133333,0.53333 -0.4,0.93333 -0.666667,1.46666 -0.133333,0.26667 -0.266666,0.53334 -0.4,0.66667 -0.133333,0.93334 -0.4,1.86667 -0.8,2.66667 -0.4,0.93333 -0.4,2 -0.933333,2.93333 -0.133333,0.26667 -0.266667,0.53334 -0.266667,0.8 -0.133333,0.13334 -0.266667,0.26667 -0.266667,0.53334 0,0 0,0.13333 0,0.13333 0,0.13333 -0.133333,0.4 -0.133333,0.53333 -0.133333,0 -0.133333,0 -0.133333,0.13334 0,0.13333 -0.133334,0.13333 -0.133334,0.26666 0,0 0,0.13334 0,0.13334 0,0 0,0 0,0 -0.133333,0.26666 -0.266666,0.4 -0.4,0.66666 0,0.13334 0,0.26667 0,0.26667 -0.133333,0.26667 -0.4,0.4 -0.4,0.66667 -0.133333,0.4 -0.133333,0.93333 -0.266666,1.33333 -0.133334,0.13333 -0.133334,0.26667 -0.266667,0.26667 l 0.266667,0.66666 c -0.133334,0.13334 -0.266667,0.8 -0.4,1.46667 -0.133334,0.13333 -0.266667,0.26667 -0.266667,0.4 -0.133333,0.26667 -0.133333,0.4 -0.133333,0.66667 -0.133334,0.53333 -0.266667,0.93333 -0.4,1.06666 v 0.13334 c -0.133334,0.13333 -0.133334,0.53333 -0.133334,1.06666 0,0.13334 0,0.26667 0,0.4 0.266667,0.4 0.266667,0.66667 -0.4,0.93334 -1.066667,0.13333 -1.066667,1.2 -1.333333,2 -0.133334,0.8 0.933333,0.66666 1.2,1.06666 -0.4,0.4 -1.066667,0 -1.333334,0.53334 -0.4,0.93333 -1.2,1.6 -1.333333,2.66666 -0.133333,0.8 -0.533333,1.73334 -0.8,2.66667 -0.533333,1.06667 -0.8,2.4 -0.533333,3.6 -0.266667,0 -0.533334,0.13333 -0.533334,0.4 0.266667,1.6 -0.533333,3.06667 -0.933333,4.66667 -0.266667,1.06666 -0.4,2.13333 -0.666667,3.2 -0.4,1.2 -0.8,2.66666 -0.533333,4 0,0 0,0 0.133333,0.13333 -0.133333,0 -0.133333,0 -0.133333,0.13334 l 0.266666,0.26666 c 0.4,-0.13333 0.666667,-0.26666 0.933334,-0.4 0.266667,0 0.533333,0 0.933333,0 0,0 0,0 0.133334,0 -0.133334,0.66667 -0.666667,0.13334 -0.933334,0.4 -0.266667,0.26667 -0.8,0.4 -0.8,0.93334 l 1.333334,1.46666 c -0.133334,0.13334 -0.4,0.26667 -0.533334,0.66667 0.133334,0.93333 1.2,0.93333 1.733334,1.73333 -0.266667,1.2 0.8,2.13334 0.8,3.33334 0.533333,0.53333 0.8,1.2 1.466666,1.46666 1.066667,-0.4 2.000001,-0.4 3.066667,0.13334 z m 11.466668,-68.8 c 0,0 0,-0.13334 0,-0.13334 0,0 0,0 0,0 0.133333,0 0.133333,0 0.133333,0.13334 0,0 -0.133333,0 -0.133333,0 z m -0.933333,1.6 c -0.133334,0 -0.266667,-0.13334 -0.266667,-0.26667 0.133333,-0.13333 0.266667,0 0.266667,0.26667 z m -0.933334,3.2 c -0.4,-0.13334 -0.533333,-0.4 -0.8,-0.66667 0.266667,-0.26667 0.533333,-0.26667 0.8,-0.13333 0.133333,0.26666 0,0.53333 0,0.8 z m 0.4,1.06666 c -0.4,0 -0.266667,-0.4 -0.266667,-0.53333 0.133334,0.13333 0.266667,0.26667 0.266667,0.53333 z m -0.933333,0.8 c -0.266667,0.13334 -0.4,0 -0.533334,-0.26666 0,-0.26667 0.133334,-0.4 0.4,-0.4 0.266667,0.13333 0.133334,0.4 0.133334,0.66666 z m -0.666667,1.6 c -0.266667,0.13334 -0.666667,0.13334 -0.933333,-0.13333 0.133333,-0.4 0.533333,-0.13333 0.8,-0.4 0.133333,0.13333 0.266666,0.26667 0.266666,0.4 0,0 -0.133333,0.13333 -0.133333,0.13333 z m -0.133333,0.93334 c 0,0 -0.133334,0 -0.133334,0 -0.133333,-0.13334 -0.133333,-0.26667 0,-0.4 0.266667,0 0.4,0.13333 0.266667,0.4 0,0 -0.133333,0 -0.133333,0 z m -0.8,1.6 c -0.133334,0.13333 -0.133334,0 -0.266667,-0.13334 0.133333,-0.13333 0.266667,-0.13333 0.266667,0.13334 z m -1.066667,2.4 c -0.4,-0.26667 -0.4,-0.26667 0.133333,-0.66667 0.133334,0.26667 0.133334,0.53333 -0.133333,0.66667 z m -1.333334,2.8 v -0.13333 l 0.133334,0.13333 z m -1.333333,2.4 c 0,0 0,0 0,0 0,-0.66667 0.4,-0.8 0.8,-0.93333 0.266667,0 0.266667,0.13333 0.266667,0.4 -0.133334,0.13333 -0.133334,0.13333 -0.266667,0.26666 -0.266667,0 -0.533333,0 -0.8,0.26667 z m -8.400001,32.93333 c -0.266666,-0.13333 -0.666666,-0.13333 -0.4,-0.66666 0.4,0.13333 0.4,0.4 0.4,0.66666 z m -1.6,3.2 c -0.133333,-0.13333 -0.266666,-0.26666 -0.4,-0.26666 0,-0.13334 0,-0.26667 0,-0.4 0.266667,-0.4 0.4,-0.8 0.666667,-1.2 0,0.53333 0.133333,0.93333 0.266667,1.33333 0,0.13333 0.133333,0.26667 0.133333,0.4 -0.266667,0.13333 -0.533333,0.13333 -0.666667,0 z m -1.066667,1.6 c -0.266666,0.13334 -0.4,0 -0.666666,-0.13333 v 0 c 0,-0.26667 0.133333,-0.4 0.4,-0.53333 0,0 0.133333,0.13333 0.133333,0.13333 0.133333,0.13333 0.133333,0.26667 0.133333,0.53333 z"
           id="path840"
           inkscape:connector-curvature="0" />
        <path
           d="m -29.455894,-141.99206 c -0.266667,-0.13333 -0.533333,0.13334 -0.933333,0.4 -0.266667,0.13334 -0.666667,0.4 -0.933334,0.53334 -0.4,0.26666 -0.8,0.4 -1.066667,0.8 -0.266666,0.4 -0.666666,0.4 -0.933333,0.66666 -0.4,0.26667 -0.666667,0.4 -0.933333,0.8 0.266666,0.4 0.133333,0.8 -0.266667,0.93334 -0.266667,-0.13334 -0.533334,-0.13334 -0.666667,-0.26667 -0.8,0.53333 -1.466667,0.93333 -2.133333,1.46667 0,0.13333 0,0.26666 -0.133334,0.26666 0,0.26667 0.4,0.53334 0.133334,0.8 -0.4,-0.13333 -0.533334,-0.4 -0.933334,-0.4 -0.933333,0.13334 -1.466667,0.93334 -2.266667,1.2 -0.8,0.4 -1.6,0.93334 -2,1.73334 -0.933333,-0.13334 -1.6,0.26666 -2.266667,0.66666 -0.533333,0.4 -0.933333,0.8 -1.6,0.93334 -0.4,0.13333 -0.666666,0.4 -0.666666,0.93333 h -0.4 c -1.333334,0.66667 -2.666667,1.33333 -3.866667,2 -0.133334,0 -0.266667,0.13334 -0.266667,0.13334 -1.2,1.06666 -1.2,1.06666 -3.2,1.46666 h -0.533334 c -0.133333,-0.13333 -0.266666,-0.4 -0.266666,-0.53333 -0.133334,-1.73334 0,-5.6 0.133333,-7.33334 l 0.4,-0.4 c 0.8,-0.93333 2.133333,-1.33333 2.933334,-2.26666 1.066666,-0.53334 1.733333,-1.33334 2.4,-2 0.666666,-0.53334 1.2,-1.2 2,-1.46667 0,-0.13333 0.133333,-0.26667 0.266667,-0.26667 0,-0.26666 0.133333,-0.53333 0.133333,-0.66666 1.066667,-1.2 2.533333,-1.86667 2.666667,-3.2 0.4,-0.26667 0.666666,-0.4 0.8,-0.8 0.133333,-0.13334 0.133333,-0.4 0.266667,-0.53334 0.933333,-0.93333 1.466666,-2.13333 2.133333,-3.33333 0.266667,-0.53333 0.133333,-1.2 0.4,-1.73333 0.533333,-0.93334 0.8,-2.13334 1.066667,-3.2 -0.4,-1.33334 -0.4,-1.33334 -0.133334,-2.53334 -0.533333,-0.8 -0.933333,-1.6 -1.333333,-2.53333 -1.333333,-0.53333 -2.533334,-1.2 -3.6,-1.86667 h -2 c -0.133334,0.13334 -0.4,0.4 -0.666667,0.4 -1.2,0.26667 -1.866667,0.93334 -2.533334,1.73334 0.133334,0.26666 0.4,0.4 0.8,0.53333 0.266667,-0.13333 0.533334,-0.26667 0.933334,-0.53333 0,0.4 0.133333,0.8 0,0.93333 -1.066667,0.53333 -1.6,-0.4 -2.4,-0.4 -0.266667,0 -0.533334,0.13333 -0.666667,0.4 0,0.8 0.933333,0.66667 1.2,1.2 0,0.26667 -0.133333,0.4 -0.266667,0.66667 -0.533333,-0.26667 -0.666666,-0.93334 -1.333333,-1.06667 -0.4,0.26667 -0.8,0.4 -0.933334,0.93333 0,0.26667 0.266667,0.53334 0.400001,0.8 0.266666,-0.13333 0.266666,-0.4 0.533333,-0.66666 0.133333,0.4 0.133333,0.8 0,1.06666 -0.4,0.13334 -0.533333,-0.13333 -0.533333,-0.4 -0.400001,0.13334 -0.933334,-0.13333 -1.333334,0.26667 0,0.53333 -0.133333,1.06667 -0.133333,1.73333 -0.4,0 -0.8,0.13334 -1.2,0.26667 -0.266667,0.53333 0.133333,1.2 0.133333,1.86667 -0.266667,0 -0.666667,0 -0.666667,0.4 0,0.26666 0.533334,0.4 0.4,0.8 -0.133333,0 -0.133333,0.13333 -0.266666,0.13333 -0.666667,-0.13333 -0.266667,-1.06667 -1.066667,-1.2 -0.133333,0.93333 -0.133333,0.93333 0.266667,1.73333 0.133333,0 0.266666,0 0.533333,0.13334 -0.266667,0.13333 -0.4,0 -0.533333,-0.13334 -0.266667,0 -0.533334,0.13334 -0.533334,0.4 0,0.26667 0.133334,0.53334 0.133334,0.8 -0.133334,-0.13333 -0.400001,-0.13333 -0.533334,-0.26666 -0.4,0.13333 -0.533333,0.4 -0.533333,0.66666 0.266666,0.4 0.4,0.8 0.666666,1.2 -0.4,0.4 -0.133333,0.93334 -0.533333,1.33334 -0.266667,-0.53334 -0.133333,-1.06667 -0.666667,-1.33334 -0.133333,0 -0.266666,0 -0.4,-0.13333 l -0.4,0.4 c -0.133333,0.4 0.266667,0.53333 0.266667,0.93333 -0.266667,0.26667 -0.8,0.26667 -0.8,0.8 1.066667,0.93334 1.066667,0.93334 1.066667,1.2 -0.133334,0.13334 -0.4,0.13334 -0.666667,0.13334 -0.133333,-0.13334 -0.266667,-0.26667 -0.533333,-0.4 -0.266667,0.53333 -0.533334,0.93333 -0.8,1.46666 0.133333,0.26667 0.133333,0.53334 0.266666,0.8 -0.4,0.26667 -0.666666,0.8 -0.4,1.33334 0.266667,0.4 0.933334,0.53333 1.2,0.93333 0,0.26667 -0.133333,0.26667 -0.4,0.4 -0.133333,-0.13333 -0.133333,-0.26667 -0.266666,-0.4 h -0.133334 c -0.266666,0.4 -0.133333,0.66667 0,1.06667 0.266667,0.26666 0.266667,0.26666 0,0.53333 v 0.13333 c -0.133333,0 -0.266666,0.13334 -0.266666,0.13334 l -0.133334,0.13333 c -0.666667,0.53333 -1.6,0.93333 -1.866667,1.46667 -0.133333,0.66666 0.533334,0.93333 0.4,1.33333 -0.133333,0 0.133334,0.13333 0.4,0.4 -0.266666,1.06667 -0.533333,2.26667 -0.266666,3.6 v 0.13333 c 0.133333,0.13334 0.133333,0.26667 0.266666,0.4 0.4,-0.26666 0.666667,-0.4 0.933334,-0.53333 0.266667,0 0.533333,0 0.8,0 h 0.133333 c -0.133333,0.66667 -0.666666,0.26667 -0.933333,0.4 -0.266667,0.4 -0.666667,0.4 -0.8,0.93333 0.533333,0.53334 1.333333,2.93334 1.733333,3.60001 0,0.93333 1.066667,1.06666 1.466667,1.86666 -0.4,1.2 0.533333,2.26667 0.266667,3.46667 0.533333,0.53333 0.666666,1.2 1.333333,1.6 1.066667,-0.26667 2.133334,-0.13333 3.066667,0.53333 l 1.2,-0.4 c 1.2,-0.53333 2.4,-1.2 3.6,-1.6 1.066667,-0.4 2.133334,-0.93333 2.800001,-2 0.666666,-0.26666 1.2,-0.53333 1.866666,-0.93333 0.133334,-0.26667 0.266667,-0.66667 0.4,-0.93333 0.400001,-0.26667 0.666667,0.26666 1.200001,-0.26667 0.8,-0.93333 2.266666,-1.86667 3.466667,-3.06667 1.066666,-1.06667 2.133333,-2.13333 3.2,-3.33333 1.2,-1.33334 2.266667,-2.8 3.466667,-4.26667 0.266666,-0.4 0.533333,-0.66667 0.666666,-0.93333 0.933334,-1.6 2.000001,-3.33334 2.666667,-5.06667 0.133334,-0.26667 0.133334,-0.4 -0.133333,-0.66667 z m -25.066669,-1.06666 c 0.533334,-0.8 0.933334,-1.46667 1.2,-2.26667 0,-0.53333 0.266667,-1.06667 0.533334,-1.33333 0.533333,-0.8 0.8,-1.6 1.466667,-2.26667 0.133333,-0.26667 0.266666,-0.53333 0.133333,-0.93333 0.533333,-0.4 0.8,-0.66667 1.2,-1.06667 0.666667,-1.06667 1.6,-2.13333 2.4,-3.06667 0.4,-0.53333 0.933334,-0.8 1.333334,-1.2 0.266666,-0.13333 0.666666,-0.13333 0.933333,-0.26666 0.266667,0.13333 0.266667,0.26666 0.266667,0.53333 0,0.26667 -0.533334,0.4 -0.666667,0.66667 0,0.4 -0.266667,0.66666 -0.4,0.93333 0.266667,0.4 0.666667,0.26667 1.066667,0.26667 0,0.26666 -0.4,0.13333 -0.533334,0.26666 -0.133333,0.13334 -0.266666,0.13334 -0.533333,0.26667 -0.133333,0.4 -0.133333,0.66667 -0.266667,0.93333 -0.266666,0.4 -0.666666,0.13334 -0.8,0.26667 -0.4,0.26667 -0.533333,0.66667 -0.666666,0.93333 0,0.26667 0,0.66667 -0.133334,0.93334 -0.266667,0.26666 -0.666667,0.4 -0.933333,0.8 -0.266667,0.26666 -0.4,0.66666 -0.666667,1.06666 -0.266667,0.13334 -0.666667,0.4 -1.066667,0.53334 -0.133333,0.26666 0,0.4 0.133334,0.66666 -0.266667,0 -0.533334,0.13334 -0.666667,0.26667 -0.266667,0.13333 -0.266667,0.4 -0.266667,0.66667 l 0.666667,0.66666 c -0.133333,0.13334 -0.266667,0.26667 -0.4,0.26667 -0.4,0 -0.666667,-0.53333 -1.066667,-0.4 -0.533333,0.4 -0.533333,1.2 -1.066667,1.46667 -0.133333,0.4 0.4,0.66666 0.266667,1.06666 -0.266667,0.13334 -0.4,-0.26666 -0.666667,-0.26666 -0.266666,-0.13334 -0.533333,-0.13334 -0.8,-0.13334 z m 7.866668,-6.26667 c -0.4,-0.13333 -0.133334,-0.13333 0,-0.26667 h 0.133333 c 0.133333,0.13334 0,0.26667 -0.133333,0.26667 z m -1.333334,2.13333 h -0.133333 c 0,0 0,-0.13333 0,-0.13333 h 0.133333 c 0.133334,0 0.133334,0 0,0.13333 z m -11.066667,5.46667 c -0.133334,-0.13333 -0.266667,-0.26667 -0.266667,-0.4 0.4,-0.13333 0.533333,0 0.266667,0.4 z m 4.533333,0 c 0.4,0.13333 0.4,0.4 0.266667,0.8 -0.4,-0.26667 -0.666667,-0.4 -0.666667,-0.66667 0.133334,-0.13333 0.266667,-0.26666 0.4,-0.13333 z m 20.133335,7.2 c -0.133333,0.13333 -0.266666,0.13333 -0.4,0.26667 -0.4,-0.13334 -0.666667,-0.26667 -0.8,-0.66667 0,-0.4 0.266667,-0.53333 0.666667,-0.53333 0.133333,0 0.4,0.13333 0.533333,0.26666 z m -26.800002,0.93333 c -0.266667,0.13334 -0.4,0 -0.533333,-0.13333 0,-0.13333 0,-0.4 0.266666,-0.53333 l 0.133334,0.13333 c 0.266667,0.13333 0.266667,0.4 0.133333,0.53333 z"
           id="path842"
           inkscape:connector-curvature="0" />
        <path
           d="m 13.026577,-145.19206 c -0.4,0 -0.666667,0.4 -0.933334,0.53334 -0.266666,0.26666 -0.666666,0.53333 -0.933333,0.8 -0.4,0.26666 -0.8,0.53333 -0.933334,0.93333 -0.133333,0.4 -0.6666662,0.4 -0.9333329,0.66667 -0.1333334,0.26666 -0.5333334,0.53333 -0.6666667,0.93333 0.2666666,0.4 0.2666666,0.8 -0.2666667,0.93333 H 7.8265763 c -0.8000001,0.4 -1.3333334,0.93334 -1.8666668,1.73334 -0.1333334,0 -0.1333334,0.13333 -0.1333334,0.26666 0,0.26667 0.4000001,0.4 0.1333334,0.66667 -0.2666667,0 -0.5333334,-0.4 -0.9333334,-0.26667 -0.9333334,0.26667 -1.3333335,1.2 -2.1333335,1.6 -0.8000001,0.4 -1.3333335,1.06667 -1.7333335,1.86667 -0.93333339,0 -1.6000001,0.53333 -2.13333348,1.06667 -0.40000002,0.4 -0.80000002,0.8 -1.46666682,1.06666 -0.2666666,0.26667 -0.5333333,0.53334 -0.5333333,1.06667 h -0.4000001 c -1.2000001,0.93333 -2.4000001,1.73333 -3.6000002,2.53333 l -0.2666667,0.26667 c -1.0666668,1.06667 -1.0666668,1.06667 -2.9333335,1.73334 0,-0.13334 0,-0.26667 -0.133333,-0.4 -0.133334,-2.00001 0.3999996,-3.86667 0.6666663,-5.86667 0,-0.53334 0,-1.2 0.2666667,-1.6 0.1333333,-0.53334 0.2666667,-0.93334 0.4,-1.46667 0.5333334,-1.86667 0.9333334,-3.6 1.3333334,-5.46667 0.6666668,-2.8 1.8666669,-5.46666 2.2666669,-8.4 0.1333333,-0.93333 0.4,-2 0.8,-2.8 0.9333335,-1.6 1.2000001,-3.33333 1.7333335,-5.06666 0.2666667,-0.8 -0.8,-1.2 -1.3333334,-1.46667 -0.9333334,-0.53333 -1.6000001,-1.33333 -2.8000002,-1.06667 -0.1333334,0 -0.2666667,0.13334 -0.2666667,0.26667 -0.5333334,0.8 -1.0666668,1.6 -1.4666668,2.4 -0.1333333,0.26667 -0.1333333,0.8 0.4,0.93333 0.2666667,0.13334 0.6666667,-0.13333 0.6666667,0.26667 -0.6666667,0 -1.3333334,0 -2.0000001,-0.26667 -0.4000003,0.4 -0.9333333,0.8 -1.4666663,0.8 -0.133334,-0.13333 -0.266667,-0.26666 -0.400001,-0.53333 0,-0.53333 0,-1.06667 -0.533333,-1.6 -0.266667,-0.13333 -0.8,-0.4 -1.066667,-0.66667 -1.2,0.13334 -2.266666,0.26667 -3.333333,0 -1.2,0 -2.133334,1.33334 -3.333334,1.73334 -0.8,0.8 -1.6,1.6 -2.4,2.26666 -0.133333,0.53334 -0.133333,0.93334 0,1.33334 0,0.13333 -0.133333,0.26666 -0.266667,0.4 -0.266666,-0.13334 0,-0.8 -0.533333,-0.8 -0.133333,0.26666 -0.4,0.53333 -0.8,0.8 0,0.4 -0.4,0.66666 -0.4,1.2 0,0.26666 0.266667,0.4 0,0.66666 -0.266667,0 -0.533334,-0.4 -0.8,-0.26666 -0.266667,0.13333 -0.533334,0.26666 -0.666667,0.53333 -0.133333,0.4 -0.133333,0.66667 -0.266667,1.06667 -0.533333,0.13333 -0.8,0.66666 -1.2,1.06666 -0.133333,0.26667 -0.133333,0.4 -0.266666,0.66667 -0.8,0.4 -1.066667,1.6 -1.600001,2.13333 -0.133333,0.4 -0.133333,0.8 -0.133333,1.06667 0.133333,0.13333 0.266667,0.13333 0.4,0.13333 -0.266667,0.26667 -0.4,0.13334 -0.4,-0.13333 h -0.4 c -0.266667,0.4 -0.266667,0.93333 -0.8,1.2 -0.4,0.13333 -0.266667,0.8 -0.666667,1.06667 -0.266666,0.4 -0.533333,0.8 -0.666666,1.2 0.133333,0.26666 0.266666,0.4 0.4,0.4 0.133333,-0.13334 0.266666,-0.26667 0.4,-0.13334 -0.133334,0.26667 -0.266667,0.13334 -0.4,0.13334 -0.133334,0.4 -0.4,0.53333 -0.666667,0.66666 -0.4,0 -0.666667,0.26667 -0.933333,0.93334 0.266666,0.4 -0.266667,1.06666 -0.133334,1.73333 0.266667,0 0.533334,0.26667 0.8,0.13333 0.133334,0.4 0,0.66667 -0.133333,0.93334 l -0.8,-0.4 c -0.266667,0.4 -0.666667,0.4 -0.933334,0.8 -0.266666,0.8 -0.533333,1.6 -0.933333,2.53333 0.533333,-0.13333 0.666667,0.53333 0.8,0.93333 -0.266667,0.4 -0.533333,-0.4 -0.933333,0.13334 -0.133334,0.26666 -0.266667,0.66666 0,1.06666 0.4,0.13334 0.666666,-0.26666 1.066666,-0.4 0.133334,0 0.266667,0.13334 0.133334,0.4 -0.666667,0.4 -1.466667,0.8 -1.866667,1.86667 -0.4,0.93333 -0.266667,1.86667 0,2.8 0.4,0.66667 1.333333,0.66667 1.733333,1.6 0,0.4 0.266667,0.93334 0.4,1.46667 0.133334,0.53333 0,1.06667 0,1.6 0.533334,0.4 0.933334,0.8 1.333334,1.2 0.266667,0 0.4,-0.53333 0.666667,-0.53333 0.533333,0 0.8,0.53333 1.333333,0.26666 0.266667,-0.26666 0.666667,-0.53333 0.933333,-0.8 0.4,-0.13333 0.666667,0 1.200001,-0.4 0.533333,-0.53333 1.066666,-1.33333 1.866666,-1.86666 0.4,-0.26667 0.666667,-0.53334 0.8,-0.93334 0,-0.13333 0.133334,-0.13333 0.266667,-0.26666 0.266667,0.13333 0.533333,0 0.8,-0.26667 0.533334,-0.8 1.2,-1.73333 1.733334,-2.53333 0.266666,-0.13334 0.533333,-0.26667 0.8,-0.26667 0,-0.26667 0,-0.53334 0.133333,-0.8 0.266667,-0.13334 0.533333,-0.4 0.533333,-0.93334 0.533334,-0.26666 0.933334,-0.53333 1.200001,-0.8 0.533333,-0.93333 1.066666,-1.73333 1.866666,-2.4 0.133334,-0.26666 0.266667,-0.53333 0.4,-0.66666 0.533334,-1.06667 1.2,-2 2,-2.66667 0.133334,-0.4 0.266667,-0.66667 0.400001,-1.06667 0.266666,-0.26666 0.666666,-0.53333 0.933333,-0.93333 -0.266667,0.93333 -0.666667,2 -0.933333,2.93333 -0.266667,1.06667 -0.266667,2.13334 -0.666667,3.2 -0.4,1.33334 -0.666667,2.66667 -0.4,4.13334 v 0.13333 c 0.133333,0.13334 0.133333,0.26667 0.266666,0.4 0.266667,-0.13333 0.666667,-0.4 0.933334,-0.4 0.266667,0 0.533333,-0.13333 0.8,-0.13333 0.133333,0 0.133333,0.13333 0.133333,0.13333 -0.133333,0.66667 -0.666666,0.13334 -0.933333,0.4 -0.266667,0.26667 -0.666667,0.4 -0.8,0.8 0.533333,0.53334 0.933333,1.06667 1.466667,1.6 -0.133334,0.13334 -0.533334,0.26667 -0.533334,0.53334 0,0.93333 1.066667,1.06666 1.6,1.73333 -0.266666,1.2 0.933334,2.13333 0.8,3.33333 0.533334,0.53334 0.933334,1.2 1.600001,1.6 0.933333,-0.53333 1.9999997,-0.53333 3.0666664,0 0.4,-0.26666 0.8000001,-0.4 1.2000001,-0.66666 1.0666668,-0.53334 2.1333335,-1.33334 3.2000003,-2 1.0666667,-0.53334 2.0000001,-1.2 2.5333335,-2.26667 0.6666667,-0.4 1.20000007,-0.8 1.73333344,-1.2 0.13333335,-0.4 0.13333335,-0.8 0.26666669,-1.06667 0.40000007,-0.26666 0.66666667,0.13334 1.20000007,-0.4 0.6666667,-1.06666 1.8666668,-2.13333 2.9333336,-3.46667 1.0666667,-1.2 1.8666668,-2.53333 2.8000002,-3.73333 1.0666667,-1.6 1.8666668,-3.2 2.8000007,-4.8 0.266666,-0.26667 0.533333,-0.66667 0.666666,-0.93333 0.666667,-1.86667 1.333334,-3.6 1.866667,-5.46667 0,-0.13333 0.133333,-0.4 -0.133333,-0.66667 z m -30.666669,-11.73333 c 0,0 0,0.13333 0,0.13333 v 0.13334 c 0,0 0,-0.13334 -0.133334,-0.13334 z m 3.866667,4.53333 c -0.266667,0.4 -0.133334,1.06667 -0.533334,1.46667 -0.4,0.26667 -0.4,0.8 -0.533333,1.33333 -0.266667,0.13334 -0.4,0.26667 -0.666667,0.53334 -0.266667,0.8 -0.8,1.33333 -1.333333,2 -0.666667,1.06666 -1.6,2 -2,3.33333 -0.133334,0.4 -0.533334,0.53333 -0.533334,0.93333 0,0.26667 0.133334,0.4 0.4,0.53334 0.133334,0 0.266667,0 0.4,0.4 -0.533333,0.4 -0.8,-0.26667 -1.2,-0.13334 -0.933333,0.26667 -1.2,1.46667 -1.866667,2.13334 l -0.4,1.2 c -0.266666,0.13333 -0.4,-0.13334 -0.666666,0.13333 -0.666667,0.8 -1.333334,1.73333 -2.000001,2.8 -0.666666,0.53333 -1.333333,1.46667 -2,2.26667 -0.4,0.53333 -0.933333,1.06666 -1.333333,1.46666 -0.4,0.26667 -0.8,0.66667 -1.2,1.06667 -0.266667,0.4 -0.533334,0.66667 -0.933334,0.93333 -0.133333,-0.26666 -0.133333,-0.53333 0,-0.8 0.133334,-0.53333 0.4,-1.2 0.666667,-1.73333 0.4,-0.8 0.666667,-1.6 0.8,-2.53333 1.066667,-1.46667 2,-3.2 2.666667,-5.2 0.4,-0.4 0.8,-1.06667 1.2,-1.73334 0.666667,-1.06666 1.2,-2.26666 2,-3.06666 0.266667,-0.26667 0.4,-0.53334 0.533334,-0.8 0.4,-0.66667 0.8,-1.2 1.2,-1.86667 0.666666,-0.93333 1.333333,-2 2.266667,-2.66667 0.8,-1.06666 1.866666,-1.86666 2.666666,-2.93333 0.266667,0.13333 0.4,0.13333 0.666667,0.13333 0.266667,-0.13333 0.4,-0.4 0.533334,-0.66666 l 1.2,-0.4 c 0.266666,0.26666 0.666666,0.53333 0.8,0.93333 -0.133334,0.4 -0.533334,0.66667 -0.8,0.93333 z m -0.666667,4.4 c 0,-0.13333 0.133333,-0.26666 0.133333,-0.26666 0.133334,0 0.133334,0.13333 0.133334,0.26666 -0.133334,0.13334 -0.266667,0.13334 -0.266667,0 z m -12.266668,1.73334 c -0.266666,0 -0.533333,0.13333 -0.933333,0.26666 0.4,-0.8 0.666667,-0.4 0.933333,-0.26666 z m 9.200001,2.4 c -0.133333,-0.13334 -0.133333,-0.26667 0,-0.53334 0,0 0.133333,0 0.133333,0.13334 0,0.13333 0,0.26666 -0.133333,0.4 z m -0.533333,1.33333 c 0.266666,-0.13333 0.4,-0.13333 0.4,0.13333 -0.133334,0.13334 -0.266667,0.13334 -0.4,-0.13333 z m -13.200001,4.66667 c 0,-0.4 0.266666,-0.4 0.4,-0.53334 -0.133334,0.53334 -0.133334,0.53334 -0.4,0.53334 z m 9.066667,1.86666 c -0.133333,0.13334 -0.266667,0.13334 -0.4,0 -0.133333,-0.26666 -0.266667,-0.53333 -0.266667,-0.8 0.133334,-0.26666 0.266667,-0.26666 0.666667,-0.26666 -0.133333,0.13333 -0.266667,0.26666 -0.266667,0.4 0,0.4 0.266667,0.4 0.266667,0.66666 z m 9.066667,-0.66666 c 0.266667,0 0.266667,0.26666 0.4,0.53333 -0.266666,0 -0.666666,0 -0.4,-0.53333 z m -1.333333,3.73333 c -0.133333,-0.13333 -0.266667,-0.13333 -0.4,-0.26667 0,-0.13333 0,-0.26666 0,-0.26666 l 0.8,-1.2 c -0.133333,0.4 0.133333,0.8 0.133333,1.2 0.133334,0.13333 0.133334,0.26666 0.133334,0.4 -0.266667,0.26666 -0.4,0.26666 -0.666667,0.13333 z m -1.066667,1.6 c -0.266667,0.26667 -0.4,0 -0.533333,0 0,-0.26667 0,-0.53333 0.266666,-0.53333 h 0.133334 c 0.266667,0.13333 0.133333,0.4 0.133333,0.53333 z m -12.400001,0.8 c -0.133333,0 -0.133333,0 -0.133333,-0.13333 0,0 0.133333,0 0.133333,0 z"
           id="path844"
           inkscape:connector-curvature="0" />
        <path
           d="m 45.342387,-152.79206 c -0.266667,-0.13333 -0.4,0 -0.533334,0.13334 l -0.4,0.93333 c -0.933333,0.4 -1.866667,1.2 -1.866667,1.46667 l 0.266667,0.53333 c -0.133333,0.26667 -0.133333,0.53333 -0.533333,0.53333 -0.266667,-0.13333 -0.133334,-0.53333 -0.533334,-0.53333 -0.8,0.13333 -0.933333,0.8 -1.333333,1.33333 l -0.8,-0.26666 c -0.266667,0.13333 -0.533333,0.26666 -0.8,0.4 -0.8,0.4 -1.466667,0.93333 -2.4,1.06666 -0.266667,0 -0.666667,0.13334 -0.8,0.53334 -0.133334,0.26666 0.266666,0.66666 0,0.93333 -0.4,0 -0.266667,-0.66667 -0.8,-0.8 0,0 -0.133334,0 -0.4,0 l -1.733334,1.06667 c -0.266667,0 -0.533333,-0.13334 -0.8,-0.13334 0,0 -0.133333,-0.13333 -0.133333,-0.13333 -0.533334,-0.93333 -0.933334,-1.86667 -1.6,-2.53333 -0.133334,-0.53334 -0.400001,-0.13334 -0.400001,-0.4 -0.666666,-0.93334 -1.733333,-1.2 -2.266666,-2 -0.133334,-0.13334 -0.266667,-0.13334 -0.4,-0.26667 -1.066667,-0.26667 -2.000001,-0.8 -2.666667,-0.93333 -1.466667,-0.26667 -2.4,0.53333 -3.333334,0.93333 l -0.4,0.66667 c -0.933333,0.4 -1.733333,1.2 -2.133333,2.13333 0,0.26667 0.133333,0.4 0.266666,0.53333 0.133334,0.13334 0.533334,0.13334 0.533334,0.4 -0.533334,0 -0.933334,0 -1.333334,0 0,0 -0.133333,0 -0.266666,0.13334 l 0.133333,0.53333 c -0.266667,0.26667 -0.4,0.8 -0.933333,0.8 -0.133334,-0.8 -0.266667,-1.33333 -0.133334,-2.13333 l 0.533334,-0.66667 c 0,-0.66667 0.266666,-1.33333 0.533333,-2 l -0.266667,-0.66667 c 0.4,-0.53333 0.533334,-1.06666 0.666667,-1.86666 l -0.133333,-0.53334 c 0.533333,-0.53333 0.533333,-1.33333 0.933333,-1.86666 -0.266667,-0.8 0.133333,-1.6 0.4,-2.26667 0,-0.13333 0,-0.13333 0,-0.26667 l -0.266667,-0.66666 c 0,-0.53334 0.4,-0.8 0.133334,-1.33334 l -1.466667,-0.66666 c -0.4,0.26666 -0.8,0.26666 -1.066667,0.66666 0.133334,0.4 -0.4,0.66667 -0.266667,1.06667 l 0.533334,0.26667 c 0,0.26666 -0.133333,0.4 -0.266667,0.53333 -0.133333,0.4 0.133334,0.8 -0.266667,1.2 l -0.666666,-0.13333 c -0.4,0.26666 -0.533334,0.53333 -0.533334,0.93333 0,0.26667 0.133334,0.4 0,0.66667 -0.133333,0.4 -0.666666,0.53333 -0.533333,0.93333 0.133333,0.4 0.533333,0.53333 0.8,0.8 0.133333,0.4 0.533333,0.66667 0.4,1.06667 l -1.066667,-0.4 c -0.133333,0 -0.4,0 -0.666666,0.13333 -0.133334,0 -0.133334,0.13333 -0.266667,0.13333 0.266667,0.4 0.133333,1.06667 0.666667,1.33334 0,-0.13334 0,-0.13334 0,-0.13334 0,0 0,0 0,0.13334 0,0 0,0 0,0 0,0.13333 -0.133334,0.26666 -0.266667,0.4 -0.266667,0 -0.4,-0.4 -0.8,-0.26667 -0.4,0.53333 -0.533333,1.2 -0.4,1.86667 -0.133333,0.26666 -0.533333,0.26666 -0.533333,0.66666 0,0.26667 0.266666,0.4 0.133333,0.66667 l -0.533334,0.53333 c 0,0.93334 -0.666666,1.73334 -1.2,2.66667 0,0.66667 0.133334,1.33333 0.133334,2 l -0.8,0.66667 c -0.133334,0.4 -0.266667,0.66666 -0.133334,1.06666 l 0.266667,0.26667 c 0,0 0,0 0,0 l -0.6666667,0.66667 c 0,0.53333 -0.6666667,0.93333 -0.4,1.6 -0.2666667,0.53333 -0.4,1.06666 -0.6666667,1.46666 -0.2666667,0.53334 -0.4000001,1.2 -0.5333334,1.6 0.1333333,0.53334 0.5333334,0.66667 0.5333334,1.06667 -0.1333334,0.4 -0.6666667,0.13333 -0.9333334,0.4 -0.9333334,2.66667 -1.0666668,5.33333 -1.8666668,8.13334 0,0.8 -0.1333334,1.73333 0.1333333,2.66666 0.2666667,0.4 0.9333334,0.4 1.2000001,0.8 0,0.8 0,1.6 0.1333333,2.4 0.1333334,0.8 -0.4,1.73334 0,2.4 0.2666667,0.26667 0.5333334,0.13334 0.8000001,0.13334 0.2666667,0 0.6666667,0 0.9333334,0 0.6666667,-0.4 1.3333334,-0.66667 1.7333334,-1.46667 0.4,-0.8 1.066667,-1.6 1.2,-2.53333 0.133333,-0.93334 0.933334,-1.6 1.066667,-2.53334 0,-0.13333 0,-0.26666 0.133333,-0.4 0.133334,-0.8 0.4,-1.46666 0.8,-2.26666 0.4,-0.93334 0.933334,-2.00001 1.333334,-3.06667 0.533333,-1.2 0.8,-2.53334 1.6,-3.73334 0.133333,-0.26666 0.133333,-0.66666 0.266667,-1.06666 0.133333,-0.13334 0.266666,-0.4 0.4,-0.53334 0.4,-0.53333 0.666666,-1.2 0.933333,-1.86666 0.4,-0.53334 0.933333,-1.06667 1.2,-1.73334 0.666667,-1.73333 1.6,-3.06666 2.8,-4.4 0.8,-1.2 2,-2 3.466667,-2.26666 0.133334,0 0.4,0 0.533334,0 0,0.4 -0.266667,0.8 0,1.2 0,0.26666 0.133333,0.26666 0.266666,0.4 0.133334,0.26666 0,0.66666 0.266667,0.93333 0.266667,0.13333 0.533333,0.26667 0.8,0.4 0.133333,0.4 0.266667,0.8 0.8,1.06667 -0.133333,0.26666 -0.133333,0.53333 -0.133333,0.53333 0.666666,0.8 1.466667,1.06667 2.133333,1.33333 0.133334,0.26667 0.133334,0.66667 0.666667,0.8 0.933333,-0.53333 2,-0.26666 3.066667,-0.26666 1.066667,-0.53334 2.133333,-1.2 3.2,-1.73334 l 0.4,-0.53333 c 0.666667,-0.53333 1.466667,-0.8 2,-1.2 0.533334,-0.53333 0.666667,-1.06667 1.066667,-1.46667 0.4,-0.26666 0.666667,-0.4 0.8,-0.66666 0.666667,-1.06667 1.333334,-2.13334 2,-3.06667 0.266667,-0.53333 0.533334,-1.06667 0.8,-1.73333 0.266667,-0.53334 0.266667,-1.2 0.533334,-1.73334 0.133333,-0.53333 0.133333,-1.06666 0,-1.6 z m -30.133336,-6.26666 c 0,0 0,0 0,0 z m 0,0 h 0.133333 c 0,0 -0.133333,0 -0.133333,0 z m 1.6,0.93333 v 0 c 0,0 0,0 0,0 z"
           id="path846"
           inkscape:connector-curvature="0" />
        <path
           d="m 44.606104,-133.99206 c 0.533333,-0.13333 0.533333,-0.53333 0.666667,-0.93333 0.4,-1.2 0.666667,-2.4 0.933333,-3.46667 0.666667,-1.73333 1.2,-3.46666 1.866667,-5.2 0.533333,-2 1.066667,-4.13333 1.866667,-6.13333 0.666667,-1.73333 0.933333,-3.46667 1.333333,-5.2 0.533334,-1.86667 0.933334,-3.86667 1.466667,-5.73333 0.266667,-0.66667 0.133333,-1.2 0,-1.86667 0.666667,-0.66667 1.2,-1.46667 1.333333,-2.53333 0.133334,-1.2 0.533334,-2.4 0.933334,-3.46667 0.666667,-1.6 1.2,-3.33333 1.6,-4.93334 0.4,-0.93333 0.4,-2 0.8,-2.8 0.533333,-0.93333 0.8,-1.86666 0.933333,-2.8 0.133334,-0.8 0.400001,-1.46666 0.666667,-2.26666 1.2,-2.4 2,-4.93334 2.666667,-7.46667 0.666667,-1.86667 1.066667,-3.73333 1.866667,-5.46667 -0.266667,-1.6 -1.733334,-1.73333 -2.533334,-2.53333 l -2.133333,-0.53333 c -0.666667,0.53333 -0.933334,1.2 -1.2,1.73333 l 0.133333,1.06667 c -0.4,0.4 -1.066667,0.53333 -1.066667,1.2 0.133334,0.8 0.8,0.8 1.333334,1.06666 0.133333,0 0.133333,0.26667 0.133333,0.4 -0.4,0.66667 -1.066667,0 -1.6,0 -0.266667,0.13334 -0.666667,0.26667 -0.933333,0.66667 l 0.133333,0.66667 c -0.266667,0.4 -0.933333,0.53333 -1.066667,1.2 -0.4,0.53333 0.4,1.06666 0.133334,2 -0.533334,0.66666 -0.933334,1.73333 -1.066667,2.8 -0.533334,0.26666 -1.066667,0.4 -1.2,0.93333 0,0.93333 0.8,1.6 1.066666,2.4 -0.266666,0.66667 -0.4,1.2 -0.933333,1.6 -0.533333,0.13333 -0.8,-0.66667 -1.333333,-0.4 -0.266667,0.13333 -0.666667,0.53333 -0.8,1.06667 l 0.666666,2.13333 c -0.666666,-0.26667 -1.066666,-0.4 -1.333333,0.13333 l 0.133333,1.2 c -0.8,0.8 -0.8,1.86667 -1.066667,2.66667 0.4,0.53333 0.666667,0.93334 1.066667,1.33334 l -0.133333,0.93333 c 0.133333,0.26667 0.533333,0.53333 0.533333,0.93333 0,0.4 0,0.8 -0.266666,0.93334 -0.533334,0.13333 -0.666667,-0.26667 -0.933334,-0.4 l -0.533333,0.66666 c -0.4,0.26667 -0.8,-0.13333 -0.933334,0.26667 -0.266666,0.66667 0.533334,0.93333 0.533334,1.46667 -0.266667,0.53333 -1.066667,0.66666 -1.2,1.46666 0,0.13334 -0.133334,0.53334 0.133333,1.06667 0.666667,0.26667 1.2,0.8 1.333333,1.6 0,0.13333 -0.133333,0.26667 -0.133333,0.4 -0.266667,0.26667 -0.533333,0.4 -0.8,0.26667 -0.4,-0.26667 -0.133333,-1.06667 -0.933333,-1.06667 -0.4,1.73333 -0.4,3.6 -1.333334,5.2 0.266667,0.66667 0.533334,1.33333 0.666667,1.86667 l -0.8,2.4 c 0.133333,0.4 0.133333,0.66666 0.266666,0.93333 l -0.8,0.8 c -0.266666,0.8 0,1.6 0.133334,2.13333 -0.4,0.53334 -0.8,0.8 -0.8,1.2 0,0.93334 0.8,1.33334 0.666666,2.13334 l -0.4,1.2 c 0.4,1.06666 0.4,2.26666 0.133334,3.33333 -0.133334,0.66667 0,1.33333 -0.133334,2 0,0.66667 -0.266666,1.33333 -0.266666,2 0.133333,1.2 0,2.53333 0.533333,3.73333 z m 14.266668,-60 c 0,0 -0.133333,0 -0.133333,-0.13333 -0.400001,-0.66667 0.533333,-0.93334 0.133333,-1.86667 0.8,0.4 1.066667,0.66667 1.2,1.06667 -0.4,0.4 -0.666667,0.8 -1.2,0.93333 z m -2.266667,6.66667 c -0.666667,0.13333 -0.666667,0.13333 -0.533333,-0.8 0.533333,0.13333 0.666666,0.4 0.533333,0.8 z m -1.866667,3.86666 c 0,0 -0.133333,-0.13333 -0.133333,-0.13333 0.133333,-0.13333 0.266667,-0.13333 0.266667,-0.13333 0.133333,0 0.133333,0 0.133333,0.13333 -0.133333,0 -0.133333,0.13333 -0.266667,0.13333 z m -5.2,16.26667 c -0.266667,0 -0.266667,-0.13333 -0.133334,-0.26666 0,0 0.133334,0 0.133334,0 0.133333,0 0.133333,0.13333 0.133333,0.13333 0,0.13333 -0.133333,0.13333 -0.133333,0.13333 z m -11.466668,51.60001 c 0.4,0 0.8,-0.13334 1.2,-0.13334 l 2.266667,-1.6 c 0.666667,-0.93333 1.333334,-1.86666 1.066667,-3.2 l -1.2,-2.26666 c -0.8,-0.26667 -1.6,-0.53334 -2.4,-0.8 l -1.866667,1.33333 c -0.533334,0.93333 0.133333,1.73333 0,2.53333 -0.133333,1.06667 0,2.26667 0.133333,3.46667 0,0.13333 0.133334,0.26667 0.133334,0.4 0.266666,0.13333 0.533333,0.26667 0.666666,0.26667 z"
           id="path848"
           inkscape:connector-curvature="0" />
      </g>
    </g>
  </g>
</svg>
